<?xml version="1.0" encoding="UTF-8"?>
<svg id="Calque_1" data-name="Calque 1" xmlns="http://www.w3.org/2000/svg" viewBox="0 0 263.64 186.28">
  <defs>
    <style>
      .cls-1 {
        fill: #11273a;
      }

      .cls-1, .cls-2 {
        stroke-width: 0px;
      }

      .cls-2 {
        fill: #ffcb00;
      }
    </style>
  </defs>
  <g>
    <path class="cls-2" d="M195.95,124.64l-52.52-30.33c-9.18-5.3-20.5-5.3-29.68,0l-52.52,30.33h134.72Z"/>
    <path class="cls-2" d="M133.2,0v60.65c-.01,10.61,5.65,20.41,14.83,25.71l52.53,30.32L133.2,0Z"/>
    <path class="cls-2" d="M56.63,116.67l52.53-30.32c9.19-5.3,14.84-15.1,14.84-25.71V0S56.63,116.67,56.63,116.67Z"/>
  </g>
  <g>
    <path class="cls-1" d="M255.21,157.74h-9.35c-1.49,0-2.7-1.21-2.7-2.7v-2.01c0-1.49,1.21-2.7,2.7-2.7h9.07c1.72,0,3.11,1.4,3.11,3.11h5.14c0-4.55-3.7-8.26-8.26-8.26h-9.07c-4.33,0-7.85,3.52-7.85,7.85v2.01c0,4.33,3.52,7.85,7.85,7.85h9.35c1.81,0,3.28,1.47,3.28,3.28v1.4c0,1.81-1.47,3.28-3.28,3.28h-8.32c-2.12,0-3.84-1.72-3.84-3.84v-.23h-5.14v.23c0,4.95,4.03,8.98,8.98,8.98h8.32c4.65,0,8.43-3.78,8.43-8.43v-1.4c0-4.65-3.78-8.43-8.43-8.43Z"/>
    <path class="cls-1" d="M227.76,163.68c0,3.95-3.22,7.17-7.17,7.17h-2.86c-3.95,0-7.17-3.22-7.17-7.17v-18.5h-5.14v18.5c0,6.79,5.52,12.31,12.31,12.31h2.86c6.79,0,12.31-5.52,12.31-12.31v-18.5h-5.14v18.5Z"/>
    <path class="cls-1" d="M202.51,175.99v-3.63c0-.84-.68-1.51-1.51-1.51h-14.84v-25.67h-5.14v27.86c0,1.63,1.32,2.95,2.95,2.95h18.55Z"/>
    <path class="cls-1" d="M150.26,175.99h5.14v-10.27h11.91c4.75,0,8.6-3.85,8.6-8.6v-3.35c0-4.75-3.85-8.6-8.6-8.6h-14.23c-1.56,0-2.83,1.27-2.83,2.83v27.98ZM170.77,157.12c0,1.9-1.55,3.45-3.45,3.45h-11.91v-10.25h11.91c1.9,0,3.45,1.55,3.45,3.45v3.35Z"/>
    <polygon class="cls-1" points="114.94 145.18 85.33 145.18 85.33 150.32 97.59 150.32 97.59 175.99 102.73 175.99 102.73 150.32 114.94 150.32 114.94 145.18"/>
    <path class="cls-1" d="M88.8,175.99v-3.79c0-.75-.61-1.36-1.35-1.36h-16.34v-25.67h-5.14v27.99c0,1.56,1.26,2.82,2.82,2.82h20.02Z"/>
    <path class="cls-1" d="M33.49,147.97v25.24c0,1.54,1.25,2.79,2.79,2.79h22.16v-3.7c0-.8-.65-1.44-1.44-1.44h-18.36v-7.69h14.66v-5.14h-14.66v-7.69h19.83v-5.14h-22.19c-1.54,0-2.79,1.25-2.79,2.79Z"/>
    <path class="cls-1" d="M14,145.18H2.85c-1.57,0-2.85,1.27-2.85,2.85v25.12c0,1.57,1.27,2.85,2.85,2.85h11.16c7.45,0,13.48-6.04,13.48-13.48v-3.84c0-7.45-6.04-13.48-13.48-13.48ZM22.34,162.5c0,4.6-3.74,8.34-8.34,8.34H5.14v-20.52h8.86c4.6,0,8.34,3.74,8.34,8.34v3.84Z"/>
    <path class="cls-1" d="M128.6,144.67l-17.84,31.31h5.92l2.92-5.13h17.99l2.92,5.13h5.92l-17.84-31.31ZM122.53,165.72l6.07-10.65,6.07,10.65h-12.13Z"/>
  </g>
  <polygon class="cls-2" points="104.9 186.28 152.29 186.28 149.36 181.13 107.83 181.13 104.9 186.28"/>
</svg>